<svg width="15" height="15" viewBox="0 0 15 15" fill="none" xmlns="http://www.w3.org/2000/svg">
<path d="M0 6.56242C0 7.08102 0.418945 7.5 0.9375 7.5C1.45605 7.5 1.875 7.08102 1.875 6.56242C1.875 5.00955 3.13477 3.74967 4.6875 3.74967H9.375V4.68726C9.375 5.06522 9.60352 5.40802 9.95508 5.55452C10.3066 5.70102 10.708 5.61898 10.9775 5.35235L12.8525 3.47719C13.2188 3.11095 13.2188 2.51617 12.8525 2.14993L10.9775 0.274763C10.708 0.00520877 10.3066 -0.0738996 9.95508 0.0725974C9.60352 0.219095 9.375 0.558968 9.375 0.93693V1.87451H4.6875C2.09766 1.87451 0 3.97235 0 6.56242ZM15 8.43758C15 7.91898 14.5811 7.5 14.0625 7.5C13.5439 7.5 13.125 7.91898 13.125 8.43758C13.125 9.99045 11.8652 11.2503 10.3125 11.2503H5.625V10.3127C5.625 9.93478 5.39648 9.59198 5.04492 9.44548C4.69336 9.29898 4.29199 9.38102 4.02246 9.64765L2.14746 11.5228C1.78125 11.8891 1.78125 12.4838 2.14746 12.8501L4.02246 14.7252C4.29199 14.9948 4.69336 15.0739 5.04492 14.9274C5.39648 14.7809 5.625 14.441 5.625 14.0601V13.1255H10.3125C12.9023 13.1255 15 11.0276 15 8.43758Z" fill="white"/>
</svg>
