<svg width="14" height="14" viewBox="0 0 14 14" fill="none" xmlns="http://www.w3.org/2000/svg">
<g clip-path="url(#clip0_38_232)">
<path d="M0 11.375C0 10.891 0.391016 10.5 0.875 10.5H2.3707C2.70703 9.72617 3.47813 9.1875 4.375 9.1875C5.27187 9.1875 6.04297 9.72617 6.3793 10.5H13.125C13.609 10.5 14 10.891 14 11.375C14 11.859 13.609 12.25 13.125 12.25H6.3793C6.04297 13.0238 5.27187 13.5625 4.375 13.5625C3.47813 13.5625 2.70703 13.0238 2.3707 12.25H0.875C0.391016 12.25 0 11.859 0 11.375ZM5.25 11.375C5.25 10.891 4.85898 10.5 4.375 10.5C3.89102 10.5 3.5 10.891 3.5 11.375C3.5 11.859 3.89102 12.25 4.375 12.25C4.85898 12.25 5.25 11.859 5.25 11.375ZM10.5 7C10.5 6.51602 10.109 6.125 9.625 6.125C9.14102 6.125 8.75 6.51602 8.75 7C8.75 7.48398 9.14102 7.875 9.625 7.875C10.109 7.875 10.5 7.48398 10.5 7ZM9.625 4.8125C10.5219 4.8125 11.293 5.35117 11.6293 6.125H13.125C13.609 6.125 14 6.51602 14 7C14 7.48398 13.609 7.875 13.125 7.875H11.6293C11.293 8.64883 10.5219 9.1875 9.625 9.1875C8.72813 9.1875 7.95703 8.64883 7.6207 7.875H0.875C0.391016 7.875 0 7.48398 0 7C0 6.51602 0.391016 6.125 0.875 6.125H7.6207C7.95703 5.35117 8.72813 4.8125 9.625 4.8125ZM5.25 1.75C4.76602 1.75 4.375 2.14102 4.375 2.625C4.375 3.10898 4.76602 3.5 5.25 3.5C5.73398 3.5 6.125 3.10898 6.125 2.625C6.125 2.14102 5.73398 1.75 5.25 1.75ZM7.2543 1.75H13.125C13.609 1.75 14 2.14102 14 2.625C14 3.10898 13.609 3.5 13.125 3.5H7.2543C6.91797 4.27383 6.14687 4.8125 5.25 4.8125C4.35313 4.8125 3.58203 4.27383 3.2457 3.5H0.875C0.391016 3.5 0 3.10898 0 2.625C0 2.14102 0.391016 1.75 0.875 1.75H3.2457C3.58203 0.976172 4.35313 0.4375 5.25 0.4375C6.14687 0.4375 6.91797 0.976172 7.2543 1.75Z" fill="white"/>
</g>
<defs>
<clipPath id="clip0_38_232">
<rect width="14" height="14" fill="white"/>
</clipPath>
</defs>
</svg>
