<svg width="18" height="14" viewBox="0 0 18 14" fill="none" xmlns="http://www.w3.org/2000/svg">
<path d="M7.55957 0.256882L4.43175 3.49988H0.843742C0.377574 3.49988 0 3.89145 0 4.37489V9.62494C0 10.108 0.377574 10.4999 0.843742 10.4999H4.43175L7.55957 13.7429C8.08797 14.2909 8.99991 13.9059 8.99991 13.1242V0.875586C8.99991 0.0931827 8.08726 -0.290362 7.55957 0.256882ZM16.2294 6.99992L17.8339 5.33594C18.0554 5.10625 18.0554 4.73364 17.8339 4.50395L17.0316 3.67197C16.8101 3.44228 16.4509 3.44228 16.2294 3.67197L14.6249 5.33594L13.0203 3.67197C12.7989 3.44228 12.4396 3.44228 12.2181 3.67197L11.4158 4.50395C11.1943 4.73364 11.1943 5.10625 11.4158 5.33594L13.0203 6.99992L11.4162 8.66353C11.1947 8.89322 11.1947 9.26582 11.4162 9.49551L12.2184 10.3275C12.4399 10.5572 12.7992 10.5572 13.0207 10.3275L14.6249 8.66389L16.2294 10.3279C16.4509 10.5576 16.8101 10.5576 17.0316 10.3279L17.8339 9.49588C18.0554 9.26619 18.0554 8.89358 17.8339 8.66389L16.2294 6.99992Z" fill="white"/>
</svg>
