<svg width="16" height="13" viewBox="0 0 16 13" fill="none" xmlns="http://www.w3.org/2000/svg">
<path d="M7.65908 0.93759L4.87877 3.71728H1.68939C1.27502 3.71728 0.939392 4.0529 0.939392 4.46728V8.96728C0.939392 9.38134 1.27502 9.71728 1.68939 9.71728H4.87877L7.65908 12.497C8.12877 12.9667 8.93939 12.6367 8.93939 11.9667V1.4679C8.93939 0.797277 8.12814 0.468528 7.65908 0.93759ZM15.9394 6.71728C15.9394 4.73196 14.9375 2.90665 13.2591 1.83478C12.9094 1.61165 12.4456 1.7154 12.2241 2.0679C12.0025 2.4204 12.106 2.88696 12.4556 3.1104C13.6978 3.90384 14.4394 5.25196 14.4394 6.71728C14.4394 8.18259 13.6978 9.53071 12.4556 10.3242C12.106 10.5473 12.0025 11.0138 12.2241 11.3667C12.4275 11.6904 12.8841 11.8398 13.2591 11.5998C14.9375 10.5279 15.9394 8.7029 15.9394 6.71728ZM11.5091 4.31509C11.1472 4.11728 10.6906 4.24759 10.49 4.6104C10.2903 4.97321 10.4225 5.42915 10.7853 5.62946C11.1888 5.85103 11.4394 6.26821 11.4394 6.71728C11.4394 7.16665 11.1888 7.58353 10.7856 7.80509C10.4228 8.0054 10.2906 8.46134 10.4903 8.82415C10.6913 9.18853 11.1481 9.3179 11.5094 9.11946C12.3916 8.63353 12.9397 7.71321 12.9397 6.71696C12.9397 5.72071 12.3916 4.80071 11.5091 4.31509Z" fill="white"/>
</svg>
