<svg width="13" height="13" viewBox="0 0 13 13" fill="none" xmlns="http://www.w3.org/2000/svg">
<path d="M7.27947 0.238368L4.26755 3.25002H0.812479C0.363584 3.25002 0 3.61362 0 4.06252V8.9375C0 9.38607 0.363584 9.75 0.812479 9.75H4.26755L7.27947 12.7613C7.78829 13.2701 8.66644 12.9126 8.66644 12.1868V0.81321C8.66644 0.0863637 7.78761 -0.269442 7.27947 0.238368V0.238368ZM11.4502 3.89731C11.0582 3.68302 10.5636 3.82419 10.3462 4.21723C10.1299 4.61028 10.2731 5.10421 10.6662 5.32121C11.1032 5.56158 11.3747 6.01319 11.3747 6.50001C11.3747 6.98683 11.1032 7.43844 10.6665 7.67847C10.2735 7.89547 10.1303 8.3894 10.3466 8.78245C10.5643 9.17719 11.0592 9.31734 11.4505 9.10237C12.4062 8.57594 13 7.57894 13 6.49967C13 5.4204 12.4062 4.42374 11.4502 3.89731Z" fill="white"/>
</svg>
