<svg width="22" height="27" viewBox="0 0 22 27" fill="none" xmlns="http://www.w3.org/2000/svg">
<g clip-path="url(#clip0_39_234)">
<path d="M21.576 4.45604C22.2234 3.73886 22.1203 2.67362 21.3411 2.07772C20.562 1.48182 19.4047 1.57675 18.7573 2.29393L11 10.8633L3.2427 2.29393C2.59531 1.57675 1.43802 1.48182 0.658849 2.07772C-0.120317 2.67362 -0.223442 3.73886 0.423954 4.45604L8.61093 13.5L0.423954 22.5439C-0.223442 23.2611 -0.120317 24.3264 0.658849 24.9223C1.43802 25.5182 2.59531 25.4232 3.2427 24.706L11 16.1367L18.7573 24.706C19.4047 25.4232 20.562 25.5182 21.3411 24.9223C22.1203 24.3264 22.2234 23.2611 21.576 22.5439L13.3891 13.5L21.576 4.45604Z" fill="white"/>
</g>
<defs>
<clipPath id="clip0_39_234">
<rect width="22" height="27" fill="white"/>
</clipPath>
</defs>
</svg>
